<svg width="33" height="34" viewBox="0 0 33 34" fill="none" xmlns="http://www.w3.org/2000/svg">
<path d="M28.0573 0.309937H5.00603C2.29507 0.309937 0.0974121 2.5076 0.0974121 5.21855V28.2698C0.0974121 30.9807 2.29507 33.1784 5.00603 33.1784H28.0573C30.7682 33.1784 32.9659 30.9807 32.9659 28.2698V5.21855C32.9659 2.5076 30.7682 0.309937 28.0573 0.309937Z" fill="#FCFCFC"/>
<path d="M13.9571 22.9754C14.5346 22.831 15.0158 22.5904 15.4489 22.3017C15.882 22.0129 16.2189 21.5798 16.5076 21.0986C16.7483 20.6173 16.8926 20.0398 16.8926 19.3661C16.8926 18.548 16.7001 17.8262 16.3152 17.2487C15.9302 16.6712 15.3046 16.2381 14.5346 16.0456C15.1121 15.7568 15.5933 15.42 15.882 14.9387C16.1708 14.5056 16.3152 13.9281 16.3152 13.3025C16.3152 12.6769 16.2189 12.1957 16.0264 11.7626C15.8339 11.3295 15.5452 10.9926 15.1602 10.752C14.7752 10.5114 14.3421 10.3189 13.8127 10.2226C13.2834 10.1264 12.7059 10.0782 12.0803 10.0782H5.87231V23.216H12.2246C12.8021 23.216 13.3796 23.1198 13.9571 22.9754ZM8.75973 12.2919H11.4547C11.6953 12.2919 11.984 12.2919 12.1765 12.3401C12.4171 12.3401 12.6096 12.4363 12.8021 12.5807C12.9946 12.6769 13.139 12.8213 13.2352 13.0138C13.3315 13.2063 13.3796 13.4469 13.3796 13.7838C13.3796 14.3131 13.2352 14.7462 12.8984 14.9869C12.5615 15.2275 12.1284 15.3719 11.6472 15.3719H8.71161V12.2919H8.75973ZM8.75973 20.9542V17.3449H11.8878C12.5134 17.3449 12.9946 17.4893 13.3796 17.778C13.7646 18.0668 13.9571 18.548 13.9571 19.2217C13.9571 19.5586 13.909 19.8474 13.7646 20.088C13.6683 20.3286 13.4759 20.473 13.2834 20.6173C13.0909 20.7617 12.8502 20.858 12.6096 20.9061C12.369 20.9542 12.0803 21.0023 11.7915 21.0023H8.71161L8.75973 20.9542Z" fill="#1E1E1E"/>
<path d="M19.0102 22.0603C19.4433 22.4934 19.9245 22.8303 20.5501 23.0709C21.1757 23.3115 21.8495 23.4077 22.5713 23.4077C23.63 23.4077 24.5925 23.1671 25.3144 22.6859C26.0843 22.2046 26.6618 21.3865 26.9987 20.2316H24.6887C24.5925 20.5203 24.3519 20.8091 23.9669 21.0978C23.5819 21.3865 23.1488 21.4828 22.6194 21.4828C21.8976 21.4828 21.3201 21.2903 20.9351 20.9053C20.5501 20.5203 20.3095 19.7985 20.3095 19.0766H27.1912C27.2393 18.3547 27.1912 17.6329 26.9987 16.9592C26.8062 16.2854 26.5656 15.6598 26.1806 15.1305C25.7956 14.6011 25.3144 14.168 24.6887 13.8792C24.0631 13.5424 23.3894 13.398 22.5713 13.398C21.8495 13.398 21.1757 13.5424 20.5982 13.783C20.0208 14.0236 19.4914 14.4086 19.0583 14.8417C18.6252 15.2748 18.2883 15.8042 18.0477 16.4298C17.8071 17.0554 17.7108 17.7291 17.7108 18.4029C17.7108 19.0766 17.8071 19.7985 18.0477 20.4241C18.2883 21.0497 18.577 21.579 19.0102 22.0121V22.0603ZM20.4539 16.8148C20.4539 16.8148 20.6464 16.3336 20.7907 16.1411C20.9832 15.9486 21.1757 15.7561 21.4645 15.6117C21.7532 15.4673 22.0901 15.4192 22.5232 15.4192C23.1488 15.4192 23.6782 15.6117 24.015 15.9486C24.3038 16.2854 24.5444 16.7667 24.6406 17.4404H20.4057C20.4057 17.4404 20.4539 17.0554 20.502 16.8148H20.4539Z" fill="#1E1E1E"/>
<path d="M25.17 10.9446H19.8282V12.244H25.17V10.9446Z" fill="#1E1E1E"/>
</svg>
