<svg width="35" height="26" viewBox="0 0 35 26" fill="none" xmlns="http://www.w3.org/2000/svg">
<path d="M30.9484 25.4412H3.08993C1.3733 25.4412 0 24.0443 0 22.2981V3.19051C0 1.44439 1.3733 0.0474854 3.08993 0.0474854H30.9484C32.665 0.0474854 34.0383 1.44439 34.0383 3.19051V22.2981C34.0383 24.0443 32.665 25.4412 30.9484 25.4412ZM3.08993 1.69383C2.25614 1.69383 1.61854 2.34239 1.61854 3.19051V22.2981C1.61854 23.1462 2.25614 23.7948 3.08993 23.7948H30.9484C31.7822 23.7948 32.4198 23.1462 32.4198 22.2981V3.19051C32.4198 2.34239 31.7822 1.69383 30.9484 1.69383H3.08993Z" fill="#FCFCFC"/>
<path d="M17.0192 17.0099C17.0192 17.0099 16.6759 16.96 16.5287 16.8104L0.39242 3.24046C0.39242 3.24046 4.76688e-05 2.69168 0.0981408 2.39234C0.441467 1.04533 1.66763 0.0475464 3.08998 0.0475464H30.9484C32.3217 0.0475464 33.5479 0.995444 33.9403 2.39234C34.0384 2.69168 33.9403 3.04091 33.695 3.24046L17.5587 16.8602C17.5587 16.8602 17.2154 17.0598 17.0683 17.0598L17.0192 17.0099ZM1.86382 2.34246L17.0192 15.1141L32.1746 2.34246C31.9294 1.94334 31.4389 1.69389 30.9484 1.69389H3.08998C2.59952 1.69389 2.1581 1.94334 1.86382 2.34246Z" fill="#FCFCFC"/>
<path d="M30.9484 25.4411H3.08995C2.01092 25.4411 1.02999 24.8923 0.49048 23.9444C0.294293 23.5952 0.34334 23.1462 0.686666 22.8967L12.9974 12.5697C13.2916 12.3202 13.7331 12.3202 14.0273 12.5697L17.0682 15.1639L20.1091 12.5697C20.4034 12.3202 20.8448 12.3202 21.1391 12.5697L33.4498 22.8967C33.7441 23.1462 33.8422 23.5952 33.646 23.9444C33.0574 24.8923 32.0765 25.4411 31.0465 25.4411H30.9484ZM2.35425 23.5453C2.35425 23.5453 2.84472 23.7449 3.08995 23.7449H30.9484C31.1936 23.7449 31.4879 23.695 31.6841 23.5453L20.5505 14.216L17.5096 16.8102C17.2154 17.0597 16.7739 17.0597 16.4797 16.8102L13.4388 14.216L2.35425 23.5453Z" fill="#FCFCFC"/>
</svg>
