<svg width="34" height="33" viewBox="0 0 34 33" fill="none" xmlns="http://www.w3.org/2000/svg">
<path d="M30.6662 0.556824H3.64682C2.17043 0.556824 0.880493 1.61913 0.880493 3.07817V30.1575C0.880493 31.6245 2.17043 32.9318 3.64682 32.9318H30.6583C32.1426 32.9318 33.2555 31.6159 33.2555 30.1575V3.07817C33.2642 1.61913 32.1426 0.556824 30.6662 0.556824ZM10.916 27.543H6.27801V13.1224H10.916V27.543ZM8.75745 10.9298H8.7242C7.23987 10.9298 6.27874 9.82489 6.27874 8.44173C6.27874 7.03327 7.26516 5.95434 8.78274 5.95434C10.3003 5.95434 11.2289 7.02532 11.2622 8.44173C11.2615 9.82489 10.3003 10.9298 8.75745 10.9298ZM27.8666 27.543H23.2286V19.6581C23.2286 17.7691 22.5537 16.4784 20.8757 16.4784C19.5937 16.4784 18.8349 17.3456 18.4974 18.1904C18.3709 18.4939 18.337 18.9072 18.337 19.3293V27.543H13.699V13.1224H18.337V15.1292C19.0119 14.1681 20.0663 12.7849 22.5197 12.7849C25.5643 12.7849 27.8674 14.7917 27.8674 19.1182L27.8666 27.543Z" fill="#FCFCFC"/>
</svg>
