<svg width="509" height="100" viewBox="0 0 509 100" fill="none" xmlns="http://www.w3.org/2000/svg">
<g clip-path="url(#clip0_2_248)">
<path d="M0 0L44.9543 96.4893L85.9874 0H0Z" fill="white"/>
<path d="M211.856 100C184.563 100 162.436 77.6134 162.436 50C162.436 22.3866 184.563 0 211.856 0" fill="white"/>
<path d="M355.184 100C382.478 100 404.605 77.6142 404.605 50C404.605 22.3858 382.478 0 355.184 0C327.89 0 305.764 22.3858 305.764 50C305.764 77.6142 327.89 100 355.184 100Z" fill="white"/>
<path d="M145.273 0H103.166V100H145.273V0Z" fill="white"/>
<path d="M282.766 0H240.659V100H282.766V0Z" fill="white"/>
<path d="M416.555 98.9767V5.46289H509" fill="white"/>
</g>
<defs>
<clipPath id="clip0_2_248">
<rect width="509" height="100" fill="white"/>
</clipPath>
</defs>
</svg>
