<svg width="38" height="27" viewBox="0 0 38 27" fill="none" xmlns="http://www.w3.org/2000/svg">
<path d="M28.848 15.5111C27.17 15.5111 25.5934 14.8006 24.1654 13.6373L24.5104 11.9963L24.5218 11.9308C24.8371 10.1881 25.8128 7.25773 28.847 7.25773C31.1205 7.25773 32.9643 9.10815 32.9643 11.3876C32.9643 13.6671 31.1196 15.5115 28.847 15.5115L28.848 15.5106V15.5111ZM28.848 3.07881C24.9806 3.07881 21.9751 5.59753 20.756 9.74573C18.8997 6.9465 17.4831 3.58072 16.6629 0.745728H12.4976V11.6136C12.4917 13.7619 10.7602 15.4991 8.61794 15.5051C6.47567 15.4996 4.74375 13.7564 4.73827 11.6136V0.745728H0.572998V11.6136C0.572998 16.0657 4.18442 19.7129 8.61794 19.7129C13.0515 19.7129 16.6629 16.0666 16.6629 11.6136V9.79295C17.4717 11.482 18.4656 13.2009 19.6734 14.7167L17.1212 26.7428H21.3815L23.2323 18.0169C24.8508 19.0551 26.713 19.712 28.8493 19.712C33.419 19.712 37.1319 15.9639 37.1319 11.3858C37.1319 6.80761 33.419 3.07789 28.8493 3.07789L28.8484 3.07927L28.848 3.07881Z" fill="#FCFCFC"/>
</svg>
